#!OML:ASF X:\für Bonn\!DataBase\2005_08_12_Daniel\c3d\Daniel.ASF
:FULLY-SPECIFIED
:DEGREES
78
root -19.7254 15.9528 23.8078 -156.243 77.5795 558.704
lowerback 15.7227 -5.40203 2.68709
upperback 5.71444 -6.42503 -1.27755
thorax -3.13994 -3.01578 -1.67483
lowerneck 0.713875 8.79874 3.7077
upperneck -5.8832 11.4191 -16.2583
head -0.646594 6.05742 -5.45851
rclavicle 2.34566e-014 3.18055e-015
rhumerus -50.9547 4.78134 -92.804
rradius 67.1172
rwrist -2.95644
rhand -30.1203 30.9778
rfingers 7.12502
rthumb -3.43364 1.02568
lclavicle 2.34566e-014 3.18055e-015
lhumerus -49.7162 -2.15285 92.0738
lradius 76.6614
lwrist 21.6092
lhand -19.3244 -10.3773
lfingers 7.12502
lthumb 6.99199 19.4872
rfemur -26.1396 -2.23367 20.2034
rtibia 61.7604
rfoot -33.927 2.04229
rtoes -22.4983
lfemur -5.00006 3.46817 -19.9722
ltibia 70.695
lfoot -9.8662 -2.13075
ltoes -17.1468
79
root -19.5498 15.9192 23.7373 -156.722 77.5946 558.258
lowerback 15.8215 -5.25371 2.90512
upperback 5.65411 -6.19884 -1.33662
thorax -3.27296 -2.90446 -1.88966
lowerneck 0.672611 8.72204 3.82834
upperneck -6.31167 11.2742 -16.349
head -0.76571 6.0061 -5.52066
rclavicle 5.4467e-014 1.27222e-014
rhumerus -49.336 5.46715 -93.4148
rradius 68.3901
rwrist -2.13547
rhand -30.6253 30.2926
rfingers 7.12502
rthumb -3.92135 0.348975
lclavicle 5.4467e-014 1.27222e-014
lhumerus -50.4794 -2.42601 92.3955
lradius 75.6724
lwrist 21.804
lhand -20.1542 -9.49928
lfingers 7.12502
lthumb 6.19095 20.3903
rfemur -25.0394 -2.29724 19.8999
rtibia 61.3744
rfoot -34.8111 2.17725
rtoes -22.7658
lfemur -7.00275 4.07504 -19.9712
ltibia 73.881
lfoot -9.1657 -2.23117
ltoes -18.3368
80
root -19.3707 15.8956 23.6659 -157.354 77.586 557.691
lowerback 15.9319 -5.09467 3.10872
upperback 5.59252 -5.95906 -1.38379
thorax -3.40758 -2.78698 -2.08747
lowerneck 0.532251 8.63617 3.6709
upperneck -6.6019 11.1307 -16.2621
head -0.856465 5.94746 -5.47717
rclavicle -5.00937e-014 -3.02153e-014
rhumerus -47.7872 6.26556 -94.0548
rradius 69.909
rwrist -1.44059
rhand -31.2212 29.5056
rfingers 7.12502
rthumb -4.49673 -0.426687
lclavicle -5.00937e-014 -3.02153e-014
lhumerus -51.4507 -2.7179 92.7852
lradius 75.2777
lwrist 21.8539
lhand -20.7318 -8.49028
lfingers 7.12502
lthumb 5.63325 21.4148
rfemur -23.772 -2.27279 19.5859
rtibia 60.7879
rfoot -35.7619 2.30571
rtoes -23.0023
lfemur -8.93045 4.6534 -20.0177
ltibia 76.8569
lfoot -8.84643 -2.42945
ltoes -18.0925
81
root -19.1856 15.8878 23.5899 -158.172 77.6134 556.899
lowerback 15.9985 -4.9099 3.23282
upperback 5.53392 -5.70043 -1.45762
thorax -3.50774 -2.6608 -2.27775
lowerneck 0.222146 8.55845 3.48819
upperneck -6.70372 11.022 -16.1378
head -0.864145 5.89075 -5.40234
rclavicle -1.07344e-014 -1.59028e-015
rhumerus -46.4477 7.08905 -94.7573
rradius 71.7804
rwrist -0.786248
rhand -31.8374 28.7636
rfingers 7.12502
rthumb -5.09175 -1.15527
lclavicle -1.07344e-014 -1.59028e-015
lhumerus -52.4977 -3.02326 93.193
lradius 75.3834
lwrist 21.9135
lhand -21.2277 -7.508
lfingers 7.12502
lthumb 5.15452 22.4093
rfemur -22.4136 -2.13986 19.2347
rtibia 59.9884
rfoot -36.6215 2.17379
rtoes -23.396
lfemur -10.8743 5.22853 -20.185
ltibia 79.5926
lfoot -8.74285 -2.58662
ltoes -17.1416
82
root -18.9924 15.8969 23.5104 -158.882 77.6172 556.184
lowerback 16.0018 -4.69944 3.3506
upperback 5.46785 -5.41244 -1.52487
thorax -3.57703 -2.52107 -2.46865
lowerneck -0.0436071 8.46033 3.17218
upperneck -6.80009 10.8866 -15.9133
head -0.894293 5.82303 -5.28014
rclavicle 1.70955e-014 1.27222e-014
rhumerus -45.3035 7.79306 -95.4848
rradius 73.7163
rwrist -0.272766
rhand -32.2953 28.4239
rfingers 7.12502
rthumb -5.53389 -1.48381
lclavicle 1.70955e-014 1.27222e-014
lhumerus -53.592 -3.36269 93.6213
lradius 75.8579
lwrist 22.0114
lhand -21.3681 -6.68932
lfingers 7.12502
lthumb 5.01895 23.2312
rfemur -20.9507 -1.94056 18.9281
rtibia 58.9813
rfoot -37.4209 1.96936
rtoes -23.7819
lfemur -12.9317 5.83616 -20.3715
ltibia 82.0773
lfoot -8.73275 -2.77753
ltoes -15.4329
83
root -18.794 15.9179 23.4277 -160.015 77.6185 555.002
lowerback 15.9797 -4.47775 3.32207
upperback 5.33954 -5.13805 -1.60482
thorax -3.68659 -2.39188 -2.58818
lowerneck -0.274212 8.34591 2.73913
upperneck -6.7716 10.7434 -15.602
head -0.906207 5.74715 -5.11208
rclavicle -1.55052e-014 -3.02153e-014
rhumerus -44.4642 8.59025 -96.2774
rradius 75.7046
rwrist 0.0988908
rhand -32.8463 28.4398
rfingers 7.12502
rthumb -6.06582 -1.45334
lclavicle -1.55052e-014 -3.02153e-014
lhumerus -54.7886 -3.66733 94.0607
lradius 76.6243
lwrist 22.1187
lhand -21.3866 -6.01025
lfingers 7.12502
lthumb 5.00106 23.9107
rfemur -19.4022 -1.62503 18.5279
rtibia 57.7961
rfoot -38.0651 1.77211
rtoes -24.1178
lfemur -14.9938 6.37641 -20.7411
ltibia 84.2796
lfoot -8.83979 -2.9773
ltoes -14.3493
84
root -18.5936 15.9473 23.3427 -161.009 77.5675 553.905
lowerback 15.8185 -4.2214 3.23808
upperback 5.25399 -4.82927 -1.66199
thorax -3.66721 -2.24371 -2.66968
lowerneck -0.477026 8.21433 2.37711
upperneck -6.79771 10.5732 -15.309
head -0.934744 5.66056 -4.96439
rclavicle 2.66371e-014 1.43125e-014
rhumerus -43.6016 9.44403 -97.0088
rradius 77.7014
rwrist 0.249271
rhand -33.1366 28.7367
rfingers 7.12502
rthumb -6.34607 -1.14823
lclavicle 2.66371e-014 1.43125e-014
lhumerus -55.776 -3.93057 94.473
lradius 77.4378
lwrist 22.268
lhand -21.0929 -5.80107
lfingers 7.12502
lthumb 5.28462 24.113
rfemur -17.8199 -1.26326 18.1983
rtibia 56.4511
rfoot -38.5248 1.39306
rtoes -24.5721
lfemur -17.0967 6.78681 -21.1723
ltibia 86.2057
lfoot -8.93107 -3.10478
ltoes -13.0357
85
root -18.3907 15.9828 23.2565 -162.078 77.5308 552.724
lowerback 15.6806 -3.90275 3.037
upperback 5.08652 -4.46033 -1.72619
thorax -3.73418 -2.07002 -2.69931
lowerneck -0.511225 8.04788 2.28754
upperneck -6.71544 10.3635 -15.1716
head -0.937075 5.5514 -4.91022
rclavicle -1.07344e-014 1.74931e-014
rhumerus -43.0066 10.4063 -97.6339
rradius 79.7656
rwrist -0.032196
rhand -33.1833 29.2386
rfingers 7.12502
rthumb -6.39121 -0.644964
lclavicle -1.07344e-014 1.74931e-014
lhumerus -56.8861 -4.24808 94.8738
lradius 78.4027
lwrist 22.5752
lhand -20.6091 -5.76802
lfingers 7.12502
lthumb 5.75172 24.1339
rfemur -16.1326 -0.829039 17.8751
rtibia 54.9556
rfoot -38.8042 0.999128
rtoes -24.8056
lfemur -19.1537 7.14985 -21.6923
ltibia 87.8345
lfoot -8.98413 -3.16687
ltoes -11.6769
86
root -18.1899 16.0234 23.1712 -163.264 77.4586 551.412
lowerback 15.5589 -3.54223 2.73208
upperback 4.90876 -4.04903 -1.75184
thorax -3.80881 -1.87533 -2.63598
lowerneck -0.618085 7.87259 2.12217
upperneck -6.59329 10.1488 -14.9515
head -0.924628 5.43536 -4.81505
rclavicle 1.15295e-014 2.38542e-015
rhumerus -42.5369 11.4503 -98.0623
rradius 81.9228
rwrist -0.524098
rhand -33.0802 29.6827
rfingers 7.12502
rthumb -6.29162 -0.203838
lclavicle 1.15295e-014 2.38542e-015
lhumerus -57.8485 -4.49391 95.3105
lradius 79.3048
lwrist 22.8811
lhand -19.8484 -6.10166
lfingers 7.12502
lthumb 6.48619 23.779
rfemur -14.4117 -0.409301 17.5678
rtibia 53.3623
rfoot -38.9532 0.508519
rtoes -25.2077
lfemur -21.2409 7.40666 -22.2921
ltibia 89.2068
lfoot -9.0531 -3.12442
ltoes -10.9107
87
root -17.9859 16.0704 23.0817 -164.35 77.3656 550.205
lowerback 15.4602 -3.16077 2.49758
upperback 4.67569 -3.60384 -1.82442
thorax -3.96223 -1.66616 -2.66466
lowerneck -0.735258 7.6635 2.15565
upperneck -6.26747 9.90819 -14.7839
head -0.838371 5.29181 -4.75988
rclavicle 4.33351e-014 -3.97569e-015
rhumerus -42.3215 12.281 -98.5806
rradius 84.0632
rwrist -0.834795
rhand -32.8871 30.0506
rfingers 7.12502
rthumb -6.10517 0.158602
lclavicle 4.33351e-014 -3.97569e-015
lhumerus -58.9927 -4.80473 95.6733
lradius 80.3014
lwrist 23.2178
lhand -19.0023 -6.41595
lfingers 7.12502
lthumb 7.30296 23.438
rfemur -12.6525 0.0670416 17.3184
rtibia 51.6727
rfoot -38.8528 -0.114067
rtoes -25.5804
lfemur -23.2872 7.58996 -22.9342
ltibia 90.3585
lfoot -9.10422 -3.04725
ltoes -10.3505
88
root -17.7776 16.1231 22.9915 -165.61 77.2264 548.813
lowerback 15.314 -2.76537 2.18062
upperback 4.44443 -3.15225 -1.87422
thorax -4.08365 -1.45279 -2.62526
lowerneck -0.935699 7.44564 2.12586
upperneck -5.78122 9.69607 -14.1989
head -0.808174 5.14073 -5.08105
rclavicle -2.14687e-014 1.59028e-015
rhumerus -42.3619 13.0927 -98.9908
rradius 86.3489
rwrist -1.09863
rhand -32.5465 30.3078
rfingers 7.12502
rthumb -5.77642 0.406546
lclavicle -2.14687e-014 1.59028e-015
lhumerus -60.1701 -5.02104 96.0674
lradius 81.3192
lwrist 23.5319
lhand -18.0149 -6.91695
lfingers 7.12502
lthumb 8.25597 22.9017
rfemur -10.8822 0.539002 17.0677
rtibia 49.9488
rfoot -38.4006 -0.808241
rtoes -25.8486
lfemur -25.2882 7.69603 -23.647
ltibia 91.278
lfoot -9.24794 -2.93846
ltoes -9.13472
89
root -17.563 16.1868 22.8984 -166.609 77.0684 547.665
lowerback 15.1483 -2.35318 1.92167
upperback 4.18523 -2.67234 -1.94794
thorax -4.22913 -1.22628 -2.6483
lowerneck -1.16644 7.21869 2.23873
upperneck -5.3368 9.44159 -14.0502
head -0.646774 4.98247 -5.02649
rclavicle -4.37326e-014 -8.74653e-015
rhumerus -42.5491 13.7915 -99.4614
rradius 88.5717
rwrist -1.275
rhand -32.2445 30.3614
rfingers 7.12502
rthumb -5.48482 0.452365
lclavicle -4.37326e-014 -8.74653e-015
lhumerus -61.5039 -5.33354 96.3928
lradius 82.4472
lwrist 23.8208
lhand -16.9565 -7.23815
lfingers 7.12502
lthumb 9.27736 22.5377
rfemur -9.18213 1.09268 16.9304
rtibia 48.2176
rfoot -37.5742 -1.76398
rtoes -26.2999
lfemur -27.2733 7.75844 -24.353
ltibia 91.9452
lfoot -9.41206 -2.805
ltoes -7.78051
